<svg width="1600" height="900" viewBox="0 0 1600 900" fill="none" xmlns="http://www.w3.org/2000/svg" role="img" aria-label="Dashboard preview">
  <defs>
    <linearGradient id="g" x1="0" y1="0" x2="1600" y2="900" gradientUnits="userSpaceOnUse">
      <stop stop-color="#0B0E14"/>
      <stop offset="1" stop-color="#13161D"/>
    </linearGradient>
    <linearGradient id="accent" x1="0" y1="0" x2="1" y2="0" gradientUnits="objectBoundingBox">
      <stop stop-color="#00D4AA" stop-opacity="0.2"/>
      <stop offset="1" stop-color="#00D4AA" stop-opacity="0.05"/>
    </linearGradient>
  </defs>

  <rect x="0" y="0" width="1600" height="900" rx="24" fill="url(#g)"/>

  <!-- top bar -->
  <rect x="64" y="56" width="1472" height="64" rx="12" fill="#0B0E14" opacity="0.55"/>
  <rect x="96" y="80" width="120" height="16" rx="8" fill="#00D4AA" opacity="0.55"/>
  <rect x="260" y="80" width="80" height="16" rx="8" fill="#9CA3AF" opacity="0.35"/>
  <rect x="360" y="80" width="80" height="16" rx="8" fill="#9CA3AF" opacity="0.25"/>
  <rect x="460" y="80" width="80" height="16" rx="8" fill="#9CA3AF" opacity="0.18"/>

  <!-- main panels -->
  <rect x="64" y="152" width="1472" height="692" rx="16" fill="#0B0E14" opacity="0.35"/>

  <rect x="96" y="192" width="704" height="300" rx="16" fill="#13161D"/>
  <rect x="832" y="192" width="704" height="300" rx="16" fill="#13161D"/>
  <rect x="96" y="520" width="1440" height="292" rx="16" fill="#13161D"/>

  <!-- chart left -->
  <rect x="128" y="224" width="160" height="16" rx="8" fill="#9CA3AF" opacity="0.25"/>
  <rect x="128" y="260" width="640" height="200" rx="12" fill="#0B0E14" opacity="0.45"/>
  <g opacity="0.85">
    <rect x="152" y="420" width="14" height="40" rx="6" fill="#00D4AA"/>
    <rect x="176" y="388" width="14" height="72" rx="6" fill="#00D4AA" opacity="0.9"/>
    <rect x="200" y="360" width="14" height="100" rx="6" fill="#00D4AA" opacity="0.8"/>
    <rect x="224" y="320" width="14" height="140" rx="6" fill="#00D4AA" opacity="0.7"/>
    <rect x="248" y="340" width="14" height="120" rx="6" fill="#00D4AA" opacity="0.6"/>
    <rect x="272" y="378" width="14" height="82" rx="6" fill="#00D4AA" opacity="0.55"/>
  </g>
  <path d="M320 420 C 380 340, 440 380, 500 332 C 560 284, 620 360, 688 308" stroke="#00D4AA" stroke-opacity="0.6" stroke-width="4" fill="none"/>

  <!-- chart right -->
  <rect x="864" y="224" width="160" height="16" rx="8" fill="#9CA3AF" opacity="0.25"/>
  <rect x="864" y="260" width="640" height="200" rx="12" fill="#0B0E14" opacity="0.45"/>
  <g opacity="0.85">
    <rect x="888" y="410" width="14" height="50" rx="6" fill="#00D4AA"/>
    <rect x="912" y="360" width="14" height="100" rx="6" fill="#00D4AA" opacity="0.9"/>
    <rect x="936" y="332" width="14" height="128" rx="6" fill="#00D4AA" opacity="0.8"/>
    <rect x="960" y="350" width="14" height="110" rx="6" fill="#00D4AA" opacity="0.7"/>
    <rect x="984" y="390" width="14" height="70" rx="6" fill="#00D4AA" opacity="0.6"/>
    <rect x="1008" y="420" width="14" height="40" rx="6" fill="#00D4AA" opacity="0.55"/>
  </g>
  <path d="M1056 420 C 1120 300, 1180 380, 1240 340 C 1300 300, 1360 380, 1428 320" stroke="#00D4AA" stroke-opacity="0.6" stroke-width="4" fill="none"/>

  <!-- lower row cards -->
  <rect x="128" y="552" width="420" height="228" rx="16" fill="#0B0E14" opacity="0.45"/>
  <rect x="580" y="552" width="420" height="228" rx="16" fill="#0B0E14" opacity="0.35"/>
  <rect x="1032" y="552" width="472" height="228" rx="16" fill="#0B0E14" opacity="0.25"/>

  <rect x="160" y="584" width="200" height="16" rx="8" fill="#9CA3AF" opacity="0.25"/>
  <rect x="612" y="584" width="200" height="16" rx="8" fill="#9CA3AF" opacity="0.22"/>
  <rect x="1064" y="584" width="200" height="16" rx="8" fill="#9CA3AF" opacity="0.2"/>

  <rect x="160" y="620" width="360" height="120" rx="12" fill="url(#accent)"/>
  <rect x="612" y="620" width="360" height="120" rx="12" fill="url(#accent)" opacity="0.8"/>
  <rect x="1064" y="620" width="416" height="120" rx="12" fill="url(#accent)" opacity="0.7"/>
</svg>
